<svg width="900" height="280" viewBox="0 0 900 280" fill="none" xmlns="http://www.w3.org/2000/svg" role="img" aria-label="Dreamwork puts your job search in Pro mode by ranking live roles for your resume">
  <defs>
    <linearGradient id="signal" x1="42" y1="0" x2="244" y2="0" gradientUnits="userSpaceOnUse">
      <stop stop-color="#3B82F6"/>
      <stop offset="1" stop-color="#7C3AED"/>
    </linearGradient>
    <linearGradient id="headline" x1="42" y1="0" x2="268" y2="0" gradientUnits="userSpaceOnUse">
      <stop stop-color="#3B82F6"/>
      <stop offset="1" stop-color="#9A35F0"/>
    </linearGradient>
    <linearGradient id="panel" x1="578" y1="44" x2="848" y2="236" gradientUnits="userSpaceOnUse">
      <stop stop-color="#11152B"/>
      <stop offset="1" stop-color="#21103D"/>
    </linearGradient>
  </defs>

  <rect x="1" y="1" width="898" height="278" rx="22" fill="#08080C" stroke="#292934" stroke-width="2"/>

  <text x="42" y="55" fill="#EDEDF2" font-family="'JetBrains Mono', ui-monospace, SFMono-Regular, Menlo, Consolas, monospace" font-size="15" font-weight="500">dreamwork_</text>
  <text x="148" y="55" fill="#80808D" font-family="'JetBrains Mono', ui-monospace, SFMono-Regular, Menlo, Consolas, monospace" font-size="10" font-weight="500" letter-spacing="1.2">LIVE JOB MATCHING</text>

  <rect x="42" y="70" width="31" height="5" rx="2.5" fill="#2F8DF4"/>
  <rect x="76" y="70" width="31" height="5" rx="2.5" fill="#3B82F6"/>
  <rect x="110" y="70" width="31" height="5" rx="2.5" fill="#596FEF"/>
  <rect x="144" y="70" width="31" height="5" rx="2.5" fill="#6D5DE8"/>
  <rect x="178" y="70" width="31" height="5" rx="2.5" fill="#7C3AED"/>
  <rect x="212" y="70" width="31" height="5" rx="2.5" fill="#9A35F0"/>

  <text x="42" y="127" fill="#F7F7FA" font-family="'DM Sans', ui-sans-serif, -apple-system, BlinkMacSystemFont, 'Segoe UI', sans-serif" font-size="42" font-weight="700" letter-spacing="-1.7">Put your job search</text>
  <text x="42" y="172" fill="url(#headline)" font-family="'DM Sans', ui-sans-serif, -apple-system, BlinkMacSystemFont, 'Segoe UI', sans-serif" font-size="42" font-weight="700" letter-spacing="-1.7">in Pro mode</text>
  <text x="42" y="211" fill="#A6A6B2" font-family="'DM Sans', ui-sans-serif, -apple-system, BlinkMacSystemFont, 'Segoe UI', sans-serif" font-size="15" font-weight="400">Built for tech professionals who want better matches,</text>
  <text x="42" y="233" fill="#A6A6B2" font-family="'DM Sans', ui-sans-serif, -apple-system, BlinkMacSystemFont, 'Segoe UI', sans-serif" font-size="15" font-weight="400">stronger applications, and less busywork.</text>

  <rect x="578" y="44" width="270" height="192" rx="18" fill="url(#panel)" stroke="#343447"/>
  <rect x="600" y="73" width="100" height="74" rx="12" fill="#101117" stroke="#3B82F6"/>
  <text x="616" y="99" fill="#9AB6E8" font-family="'JetBrains Mono', ui-monospace, SFMono-Regular, Menlo, Consolas, monospace" font-size="10" font-weight="500" letter-spacing="1">RESUME</text>
  <rect x="616" y="111" width="55" height="4" rx="2" fill="#59657A"/>
  <rect x="616" y="122" width="37" height="4" rx="2" fill="#343D4F"/>

  <path d="M711 110H741" stroke="url(#signal)" stroke-width="3" stroke-linecap="round"/>
  <path d="M736 104L742 110L736 116" stroke="#7C3AED" stroke-width="3" stroke-linecap="round" stroke-linejoin="round"/>

  <rect x="752" y="73" width="76" height="74" rx="12" fill="#EDEDF2"/>
  <text x="762" y="97" fill="#636373" font-family="'JetBrains Mono', ui-monospace, SFMono-Regular, Menlo, Consolas, monospace" font-size="8" font-weight="500" letter-spacing="0.7">TOP MATCH</text>
  <text x="762" y="129" fill="#111117" font-family="'DM Sans', ui-sans-serif, -apple-system, BlinkMacSystemFont, 'Segoe UI', sans-serif" font-size="28" font-weight="700">#1</text>

  <rect x="600" y="166" width="228" height="45" rx="11" fill="#101117" stroke="#343447"/>
  <circle cx="620" cy="188" r="6" fill="#7C3AED"/>
  <text x="636" y="185" fill="#F2F2F5" font-family="'DM Sans', ui-sans-serif, -apple-system, BlinkMacSystemFont, 'Segoe UI', sans-serif" font-size="12" font-weight="700">Ranked for your skills</text>
  <text x="636" y="200" fill="#8F8F9D" font-family="'DM Sans', ui-sans-serif, -apple-system, BlinkMacSystemFont, 'Segoe UI', sans-serif" font-size="10" font-weight="400">Live roles · refreshed daily</text>
</svg>
